<?xml version="1.0" encoding="UTF-8"?>
<svg id="Livello_1" data-name="Livello 1" xmlns="http://www.w3.org/2000/svg" viewBox="0 0 61.06 76.39">
  <defs>
    <style>
      .cls-1 {
        fill: #000;
        stroke-width: 0px;
      }
    </style>
  </defs>
  <path class="cls-1" d="M19.51,32.27c-3.59-4.01-6.98-7.81-7.44-12.51-.08-.85-.85-1.48-1.7-1.39-.85.08-1.48.84-1.39,1.7.56,5.71,4.28,9.87,8.22,14.28l.12.13c1.81,2.02,3.06,5.91,3.36,10.42.06.82.74,1.45,1.55,1.45.03,0,.07,0,.1,0,.85-.06,1.5-.8,1.45-1.65-.35-5.25-1.86-9.72-4.14-12.28l-.12-.13Z"/>
  <path class="cls-1" d="M59.67,5.78c-.15-.49-.54-.88-1.03-1.03-.49-.15-1.03-.04-1.43.28l-6.19,5.04-6.76-1.8c-.79-.21-1.62.23-1.88,1.02l-4,12.23-6.19-8.8c-.32-.46-.86-.7-1.42-.65l-7.47.73-5.6-9.33c-.24-.39-.63-.66-1.08-.73s-.91.06-1.26.35l-6.3,5.39L6.25,1.01C6.03.43,5.5.04,4.88,0c-.61-.04-1.19.3-1.47.84C1.15,5.28,0,10.05,0,15.04c0,5.73,2.76,12.91,5.35,16.75,1.88,2.78,3.42,4.87,4.66,6.55,3.06,4.15,4.21,5.71,4.67,9.7.63,5.52,2.8,8.22,4.4,9.48-1.03.96-1.68,2.32-1.68,3.84v2.46c0,.09.02.18.03.27-.01.09-.03.17-.03.26v1.95s0,0,0,.01v2.47s0,0,0,.01v.53c0,.23.06.45.15.65.54,2.34,2.63,4.09,5.13,4.09h.11c.58,1.1,1.85,2.33,2.71,2.33h11.82c.86,0,2.13-1.23,2.71-2.33h.11c2.5,0,4.58-1.75,5.13-4.08.09-.2.15-.42.15-.65v-4.97c0-.09-.01-.18-.03-.27,0-.09.03-.18.03-.27v-2.46c0-1.81-.91-3.4-2.3-4.35,1.52-1.43,3.28-4.1,3.79-8.99.43-4.13,1.53-5.64,4.78-10.14,1.15-1.58,2.57-3.56,4.29-6.09,2.91-4.3,5.1-11.5,5.1-16.75,0-3.15-.47-6.27-1.39-9.26ZM42.31,61.51c-.67-.3-1.4-.48-2.17-.48h-17.46c-.78,0-1.51.18-2.17.48v-.16c0-1.2.98-2.17,2.17-2.17h17.46c1.2,0,2.17.97,2.17,2.17v.16ZM41.91,65.06c-.39.56-1.04.93-1.78.93h-17.46c-.73,0-1.38-.37-1.78-.93.39-.56,1.04-.93,1.78-.93h17.46c.73,0,1.38.37,1.78.93ZM40.13,70.95h-17.46c-1.19,0-2.17-.97-2.17-2.16v-.17c.66.3,1.4.48,2.17.48h17.46c.78,0,1.51-.18,2.17-.48v.16c0,1.2-.97,2.17-2.17,2.17ZM53.39,30.05c-1.68,2.49-3.1,4.44-4.23,6.01-3.32,4.59-4.83,6.68-5.35,11.64-.62,5.89-3.17,7.49-3.87,7.82h-18.32c-.64-.31-3.19-1.92-3.87-7.83-.55-4.81-2.12-6.94-5.25-11.19-1.22-1.65-2.74-3.71-4.58-6.44-2.37-3.51-4.82-10.08-4.82-15.01,0-3.22.53-6.35,1.59-9.33l2.23,5.95c.18.47.58.83,1.07.96.49.12,1.01,0,1.4-.32l6.59-5.64,5.16,8.59c.31.51.88.8,1.48.75l7.55-.74,7.45,10.59c.34.48.92.73,1.5.64.58-.09,1.06-.49,1.25-1.05l4.5-13.78,6.1,1.62c.48.13,1,.02,1.38-.3l4.94-4.02c.44,1.99.66,4.02.66,6.08,0,4.63-2,11.22-4.57,15.01Z"/>
</svg>