<?xml version="1.0" encoding="UTF-8"?>
<svg id="Livello_1" data-name="Livello 1" xmlns="http://www.w3.org/2000/svg" viewBox="0 0 240.64 112.61">
  <defs>
    <style>
      .cls-1 {
        fill: #fff;
        stroke-width: 0px;
      }
    </style>
  </defs>
  <g id="Livello_2" data-name="Livello 2">
    <g id="Livello_1-2" data-name="Livello 1-2">
      <path class="cls-1" d="M240.64,31.83c-.31-.38-.45-.87-.39-1.35v-5.91c0-1.3,0-4-5.32-4-1.37-.05-2.74.2-4,.73-1.14.54-1.9,1.65-2,2.9l4.17-.11c.16-.75.44-1,1.45-1,1.28,0,1.5.51,1.52,1.24-.78.22-1.57.38-2.38.46-2,.26-3.18.42-4.2,1.43-.63.61-.97,1.45-.95,2.33,0,1.84,1.23,3.5,4,3.5,1.32.07,2.62-.3,3.71-1.05v.84h4.39ZM236,26.77c.03.44-.05.88-.22,1.28-.41.73-1.16,1.2-2,1.24-.85,0-1.11-.55-1.11-.84,0-.12,0-.63.91-1,.39-.13.78-.21,1.15-.3s.89-.27,1.32-.42l-.05.04ZM222.71,31.82h4.46v-10.82h-4.46v10.82ZM222.71,19.9h4.46v-2.9h-4.46v2.9ZM216.44,31.83h4.45v-6.83c.13-1.16-.26-2.32-1.06-3.17-.86-.74-1.97-1.13-3.11-1.09-2.56,0-3.58,1.33-3.9,2-.43-.88-1.23-1.52-2.18-1.74-.55-.17-1.13-.26-1.71-.26-1.44-.15-2.83.57-3.55,1.83v-1.57h-4.26v10.84h4.46v-5.91c-.03-.45.12-.89.43-1.21.33-.3.76-.46,1.21-.44.69-.05,1.32.4,1.5,1.07.04.21.06.42.06.63v5.86h4.46v-5.84c-.14-.83.42-1.61,1.25-1.75.13-.02.27-.03.4-.01,1.53,0,1.56,1.17,1.56,1.86v5.73ZM192.08,27.17h7.84c-.05-1.65-.07-3.46-1.71-5-1.24-1.09-2.85-1.66-4.5-1.61-3.64,0-6.17,2.28-6.17,5.82,0,3,2,5.91,6.19,5.91,2.38.13,4.64-1.01,5.95-3l-3.68-1.49c-.31.84-1.1,1.4-2,1.41-.5.02-.99-.16-1.35-.51-.38-.41-.58-.97-.54-1.53h-.03ZM192.08,24.89c.04-.9.78-1.62,1.68-1.62.7-.02,1.32.44,1.5,1.11.03.17.05.34.06.51h-3.24ZM187.47,48.22c0,3,2,5.91,6.19,5.91,2.39.14,4.68-1,6-3l-3.66-1.46c-.31.84-1.11,1.39-2,1.4-.5.02-.98-.16-1.34-.5-.39-.41-.58-.97-.54-1.53h7.84c0-1.66-.07-3.46-1.71-5-1.24-1.09-2.86-1.67-4.51-1.62-3.64,0-6.17,2.29-6.17,5.83l-.1-.03ZM192.06,46.75c.05-.9.79-1.6,1.69-1.61.7-.02,1.32.44,1.5,1.11.03.17.05.33.06.5h-3.25ZM181.78,53.69h4.48v-14.8h-4.48v14.8ZM182,31.83h4.33v-14.83h-4.46v4.69c-.77-.73-1.81-1.11-2.87-1.04-2.45,0-4.9,1.7-4.9,5.49,0,3.42,1.85,6,5.05,6,.57,0,1.15-.08,1.69-.27.46-.17.86-.47,1.16-.87v.83ZM182,26.35c.08.76-.13,1.52-.58,2.14-.3.3-.71.47-1.13.48-.42,0-.83-.16-1.12-.46-.49-.6-.72-1.37-.63-2.14,0-.43.04-.85.13-1.27.13-.78.81-1.36,1.6-1.37.73.04,1.35.56,1.52,1.27.13.44.19.9.17,1.36h.04ZM168.87,31.83h4.39c-.31-.38-.45-.87-.39-1.35v-5.91c0-1.3,0-4-5.32-4-1.37-.05-2.74.2-4,.73-1.13.54-1.89,1.65-2,2.9l4.18-.11c.16-.75.44-1,1.45-1,1.28,0,1.5.51,1.52,1.24-.78.22-1.57.38-2.38.46-2,.26-3.18.42-4.2,1.43-.63.61-.97,1.45-.95,2.33,0,1.84,1.23,3.5,4,3.5,1.3.05,2.58-.32,3.66-1.05v.84h.04ZM168.63,26.77c.03.44-.05.88-.22,1.28-.42.74-1.2,1.22-2.05,1.24-.85,0-1.11-.55-1.11-.84,0-.12,0-.63.91-1,.39-.13.78-.21,1.15-.3s.89-.27,1.32-.42v.04ZM160.9,48c0-3.79-2.44-5.49-4.89-5.49-1.06-.07-2.1.32-2.86,1.07v-4.7h-4.46v14.8h4.31v-.78c.3.37.7.64,1.15.79.54.19,1.1.28,1.67.28,3.22,0,5.06-2.54,5.06-6l.02.03ZM156.51,48.23c.08.77-.14,1.54-.63,2.14-.3.3-.71.47-1.13.46-.75-.01-1.4-.54-1.55-1.28-.12-.44-.17-.89-.16-1.34-.07-.76.15-1.53.61-2.14.3-.3.71-.47,1.13-.48.79,0,1.46.58,1.6,1.36.09.42.14.85.13,1.28ZM153.35,26.43c0-1.64.67-2.94,2-2.94.95.01,1.76.72,1.89,1.66l3.4-1.87c-.24-.42-.54-.8-.89-1.13-1.25-1.16-2.91-1.77-4.61-1.7-1.7-.07-3.36.53-4.63,1.66-1.08,1.13-1.66,2.63-1.61,4.19-.19,3.09,2.16,5.74,5.24,5.93.25.02.5.01.76,0,1.73.08,3.42-.55,4.68-1.74.46-.45.83-.99,1.08-1.59l-3.4-1.8c-.2.56-.63,1.82-2,1.82-1.76,0-1.93-1.63-1.93-2.49h.02ZM153.13,60.79h-4.45v3.4h-1.55v2.33h1.52l-.06,5.23c-.09.82.16,1.64.71,2.25.84.64,1.88.96,2.93.9.93-.01,1.87-.09,2.79-.23v-2.96c-.26.05-.52.08-.79.09-1.19,0-1.21-.71-1.21-1.13v-4.14h1.98v-2.33h-1.91v-3.4h.04ZM141.23,26.43c0-1.64.67-2.94,2-2.94.95.01,1.76.72,1.89,1.66l3.4-1.87c-.24-.42-.54-.8-.89-1.13-1.25-1.16-2.91-1.77-4.61-1.7-1.7-.07-3.36.52-4.63,1.66-1.08,1.13-1.66,2.63-1.61,4.19-.19,3.09,2.16,5.74,5.24,5.93.25.02.5.01.76,0,1.73.08,3.42-.55,4.68-1.74.46-.45.83-.99,1.08-1.59l-3.4-1.8c-.2.56-.63,1.82-2,1.82-1.76,0-1.93-1.63-1.93-2.49h.02ZM145.51,63.71c-1.35-.17-2.71.25-3.72,1.17v-1h-4.26v10.85h4.41v-5.08c0-.7.07-2.35,2.67-2.35h.9v-3.58h0ZM142.28,42.82h-4.46v10.87h4.46v-10.86h0ZM142.28,38.88h-4.46v2.87h4.46v-2.86h0ZM143.51,87.7c-.78.22-1.58.37-2.38.46-2,.25-3.18.42-4.2,1.42-.65.6-1.01,1.45-1,2.33,0,1.84,1.23,3.5,4.05,3.5,1.32.05,2.62-.33,3.7-1.09v.84h4.39c-.31-.37-.45-.86-.39-1.34v-5.9c0-1.3,0-4-5.32-4-1.37-.05-2.74.2-4,.74-1.14.53-1.9,1.64-2,2.89l4.17-.1c.16-.76.44-1,1.45-1,1.28,0,1.5.5,1.52,1.24h.01ZM143.51,90.11c.03.44-.05.88-.22,1.28-.42.74-1.21,1.21-2.06,1.23-.84,0-1.1-.54-1.1-.84,0-.12,0-.63.91-1,.38-.12.76-.21,1.15-.29.45-.13.89-.28,1.32-.42v.04ZM131.67,53.69h4.33v-14.8h-4.46v4.7c-.76-.74-1.8-1.13-2.86-1.07-2.45,0-4.89,1.7-4.89,5.49,0,3.42,1.84,6,5,6,.58,0,1.15-.09,1.69-.28.45-.15.85-.42,1.15-.79v.79l.04-.04ZM131.67,48.22c.08.76-.13,1.53-.59,2.14-.3.3-.7.47-1.12.48-.42,0-.83-.16-1.13-.46-.49-.6-.71-1.37-.63-2.14,0-.43.04-.86.13-1.28.14-.88.97-1.48,1.84-1.33.65.1,1.17.59,1.32,1.23.13.44.2.9.18,1.36ZM131.58,31.83h4.42c-.31-.38-.45-.87-.39-1.35v-5.91c0-1.3,0-4-5.33-4-1.37-.05-2.74.2-4,.73-1.13.54-1.89,1.65-2,2.9l4.18-.11c.15-.75.44-1,1.45-1,1.28,0,1.5.51,1.52,1.24-.78.22-1.57.38-2.38.46-2,.26-3.18.42-4.2,1.43-.65.6-1.01,1.45-1,2.33,0,1.84,1.23,3.5,4,3.5,1.32.06,2.62-.31,3.71-1.05v.84h.02ZM131.34,26.77c.03.44-.05.88-.22,1.28-.43.77-1.24,1.24-2.12,1.24-.84,0-1.1-.55-1.1-.84,0-.12,0-.63.91-1,.39-.13.78-.21,1.15-.3s.88-.27,1.32-.42l.06.04ZM112.61,56.31l-20.79-14.71,4.3-25.11-25.12,4.31L56.31,0l-14.71,20.8-25.11-4.31,4.31,25.11L0,56.31l20.8,14.69-4.31,25.12,25.11-4.31,14.71,20.8,14.69-20.8,25.11,4.31-4.29-25.12,20.79-14.7h0ZM29.9,86l20.1-6.38-7.84,8.61-12.26-2.23ZM27.64,27.6l25.36,9.83-15.57,15.57-9.79-25.36v-.04ZM33,50l-8.6-7.84,2.18-12.29,6.42,20.13ZM33,62.57l-6.43,20.15-2.18-12.29,8.61-7.84v-.02ZM54.47,40.35v14.12h-14.12l14.12-14.12ZM54.47,58.14v14.13l-14.12-14.13h14.12ZM52.97,75.14l-25.6,10,10.06-25.49,15.57,15.54-.03-.05ZM21,91.63l1.82-14,1.8,10.37,10.38,1.81-14,1.82ZM8,57.38l24.66.76-9.86,10.21-14.8-10.97ZM22.8,44.26l9.89,10.21-24.69.76,14.77-11,.03.03ZM35,22.8l-10.38,1.83-1.82,10.37-1.8-14,14,1.8ZM42.18,24.39l7.82,8.61-20.1-6.42,12.28-2.19ZM55.23,8l-.76,24.66-10.21-9.86,10.97-14.8ZM55.23,104.55l-11-14.77,10.21-9.88.76,24.65h.03ZM89.81,68.35l-9.89-10.21,24.66-.76-14.77,11v-.03ZM58.14,72.27v-14.13h14.12l-14.12,14.13ZM75.14,59.65l10,25.59-25.59-10,15.64-15.59h-.05ZM58.14,54.47v-14.12l14.12,14.12h-14.12ZM59.65,37.47l25.35-9.83-9.81,25.36-15.54-15.57v.04ZM86,29.89l2.18,12.29-8.56,7.82,6.38-20.11ZM79.58,62.59l8.6,7.84-2.18,12.29-6.38-20.13h-.04ZM77.58,89.81l10.42-1.81,1.82-10.38,1.82,14-14-1.82h-.06ZM70.4,88.23l-7.84-8.61,20.16,6.38-12.29,2.23h-.03ZM57.38,104.58l.76-24.65,10.21,9.88-11,14.77h.03ZM68.38,22.8l-10.24,9.89-.76-24.69,11,14.77v.03ZM82.75,26.58l-20.16,6.42,7.84-8.6,12.29,2.19h.03ZM91.63,21l-1.82,14-1.81-10.37-10.39-1.83,14-1.82.02.02ZM104.63,55.25l-24.67-.76,9.89-10.21,14.78,11v-.03ZM125.43,85.48c-1.07,1.13-1.65,2.64-1.6,4.2-.2,3.08,2.14,5.74,5.22,5.93.26.02.52.01.78,0,1.73.08,3.42-.55,4.68-1.74.46-.46.83-1,1.08-1.6l-3.4-1.8c-.19.57-.62,1.83-2,1.83-1.75,0-1.93-1.64-1.93-2.5,0-1.63.68-2.93,2-2.93.95.01,1.75.71,1.88,1.65l3.4-1.86c-.24-.42-.54-.8-.89-1.13-1.25-1.16-2.91-1.77-4.61-1.7-1.7-.07-3.36.52-4.63,1.65h.02ZM131.43,67.29c-.78.22-1.58.37-2.38.46-2,.25-3.18.42-4.2,1.43-.65.6-1.01,1.44-1,2.32,0,1.85,1.23,3.5,4,3.5,1.32.06,2.63-.33,3.71-1.09v.84h4.44c-.31-.37-.45-.86-.39-1.34v-5.93c0-1.3,0-4-5.33-4-1.37-.05-2.74.2-4,.73-1.13.54-1.89,1.64-2,2.89l4.18-.1c.15-.76.44-1,1.45-1,1.28,0,1.5.5,1.52,1.24v.05ZM131.43,69.7c0,.45-.12.9-.33,1.3-.44.74-1.24,1.19-2.1,1.19-.84,0-1.1-.54-1.1-.83,0-.13,0-.63.91-1,.39-.11.79-.2,1.19-.26.45-.13.88-.27,1.32-.42l.11.02ZM150.2,84.56h-1.56v2.35h1.54l-.07,5.26c-.08.82.2,1.64.76,2.25.85.64,1.89.96,2.95.9.94-.02,1.88-.1,2.81-.23v-3c-.26.05-.53.07-.8.08-1.19,0-1.21-.71-1.21-1.13v-4.17h2v-2.31h-1.93v-3.42h-4.48v3.42h0ZM161.46,60h-4.46v2.86h4.43v-2.86h.03ZM161.46,63.92h-4.46v10.81h4.43v-10.73l.03-.08ZM158.12,89.56c-.65.6-1.01,1.45-1,2.33,0,1.84,1.24,3.5,4.05,3.5,1.32.06,2.62-.32,3.7-1.09v.84h4.4c-.31-.37-.46-.86-.39-1.34v-5.88c0-1.3,0-4-5.33-4-1.37-.05-2.74.2-4,.74-1.14.53-1.9,1.64-2,2.89l4.18-.1c.15-.76.43-1,1.45-1,1.28,0,1.49.5,1.52,1.24-.78.22-1.58.37-2.38.46-2,.25-3.19.42-4.21,1.42h.01ZM161.31,91.76c0-.12,0-.63.91-1,.37-.12.75-.21,1.14-.29.46-.13.89-.28,1.32-.42.03.44-.05.87-.21,1.28-.42.74-1.21,1.21-2.06,1.23-.84,0-1.1-.54-1.1-.84v.04ZM167,50.57c-.39-.41-.58-.97-.54-1.53h7.84c-.05-1.66-.07-3.46-1.71-5-1.24-1.09-2.86-1.67-4.51-1.62-3.64,0-6.17,2.29-6.17,5.83,0,3,2,5.91,6.19,5.91,2.39.14,4.68-1,6-3l-3.68-1.49c-.31.84-1.11,1.39-2,1.4-.5.02-.98-.16-1.34-.5h-.08ZM166.5,46.75c.05-.9.79-1.6,1.69-1.61.69-.02,1.31.44,1.49,1.11.04.16.06.33.07.5h-3.25ZM175.5,53.69h4.5v-14.8h-4.48v14.8h-.02ZM175,84.31h-4.23v10.86h4.46v-5.79c0-.58,0-1.78,1.63-1.78s1.52,1.09,1.52,1.64v5.93h4.45v-6.86c.09-1.19-.31-2.37-1.12-3.26-.83-.71-1.91-1.06-3-1-1.46-.15-2.88.5-3.71,1.71v-1.45ZM189.24,80.37h-4.46v2.87h4.46v-2.87ZM189.24,84.31h-4.46v10.86h4.46v-10.86ZM191.56,89.59c-.63.61-.97,1.45-.95,2.33,0,1.84,1.23,3.5,4,3.5,1.32.06,2.63-.33,3.71-1.09v.84h4.39c-.31-.37-.45-.86-.39-1.34v-5.91c0-1.3,0-4-5.32-4-1.37-.05-2.74.2-4,.74-1.14.53-1.9,1.64-2,2.89l4.17-.1c.16-.76.44-1,1.45-1,1.28,0,1.5.5,1.52,1.24-.78.22-1.58.37-2.38.46-2,.25-3.18.42-4.2,1.42v.02ZM194.74,91.79c0-.12,0-.63.91-1,.38-.12.76-.21,1.15-.29.45-.13.89-.28,1.32-.42.03.44-.05.88-.22,1.28-.41.72-1.17,1.19-2,1.23-.85,0-1.11-.54-1.11-.84l-.05.04Z"/>
    </g>
  </g>
</svg>